<svg xmlns="http://www.w3.org/2000/svg" xmlns:xlink="http://www.w3.org/1999/xlink" preserveAspectRatio="xMidYMid" width="44" height="32" viewBox="0 0 88 64">
  <defs>
    <style>

      .cls-3 {
        fill: #329de8;
      }

      .cls-4 {
        fill: #ffffff;
      }
    </style>
  </defs>
  <g id="buttonsvg">
    <path d="M0.000,0.001 C0.000,0.001 80.000,0.001 80.000,0.001 C84.418,0.001 88.000,3.583 88.000,8.001 C88.000,8.001 88.000,56.000 88.000,56.000 C88.000,60.419 84.418,64.000 80.000,64.000 C80.000,64.000 0.000,64.000 0.000,64.000 C0.000,64.000 0.000,0.001 0.000,0.001 Z" id="path-1" class="cls-3" fill-rule="evenodd"/>
    <path d="M48.724,33.802 C49.705,32.143 50.270,30.208 50.268,28.140 C50.268,21.988 45.284,17.004 39.133,17.003 C32.981,17.004 27.997,21.988 27.997,28.140 C27.997,34.290 32.981,39.274 39.133,39.278 C41.200,39.274 43.136,38.711 44.796,37.729 C44.796,37.729 54.065,46.996 54.065,46.996 C54.065,46.996 57.990,43.069 57.990,43.069 C57.990,43.069 48.724,33.802 48.724,33.802 ZM39.133,35.803 C34.901,35.794 31.475,32.373 31.467,28.140 C31.475,23.908 34.901,20.483 39.133,20.473 C43.365,20.483 46.791,23.908 46.799,28.140 C46.791,32.373 43.365,35.794 39.133,35.803 Z" id="path-2" class="cls-4" fill-rule="evenodd"/>
  </g>
</svg>
